<?xml version="1.0" encoding="UTF-8"?><svg width="8px" height="10px" viewBox="0 0 8 10" version="1.1" xmlns="http://www.w3.org/2000/svg" xmlns:xlink="http://www.w3.org/1999/xlink">    <!-- Generator: Sketch 50 (54983) - http://www.bohemiancoding.com/sketch -->    <title>播放</title>    <desc>Created with Sketch.</desc>    <defs></defs>    <g id="多媒体-chorus" stroke="none" stroke-width="1" fill="none" fill-rule="evenodd">        <g id="播放" fill="#FEFEFE" fill-rule="nonzero">            <path d="M7.36363946,4.63637758 L7.27273024,4.59092308 C7.27273024,4.59092308 7.27273024,4.59092308 7.22727573,4.59092308 L0.999991477,1.00001854 C0.909082251,0.95456403 0.818173237,0.90910931 0.727264011,0.90910931 C0.454536544,0.90910931 0.272718944,1.09092755 0.272718944,1.36365438 L0.272718944,8.63637971 C0.272718944,8.90910718 0.454537184,9.09092478 0.727264011,9.09092478 C0.818173237,9.09092478 0.909082251,9.04547027 0.999991477,9.00001555 L7.22727573,5.40911101 C7.22727573,5.40911101 7.22727573,5.40911101 7.27273024,5.40911101 L7.36363946,5.36365651 C7.45454869,5.27274728 7.5454577,5.13638291 7.5454577,5.00001918 C7.5454577,4.86365544 7.45454848,4.72729171 7.36363946,4.63638184 L7.36363946,4.63637758 Z M1.18182399,7.8636597 L1.18182399,2.13638291 L6.18183465,5.00002131 L1.18182399,7.8636597 Z" id="Shape"></path>        </g>    </g></svg>