<?xml version="1.0" encoding="UTF-8"?><svg width="6px" height="8px" viewBox="0 0 6 8" version="1.1" xmlns="http://www.w3.org/2000/svg" xmlns:xlink="http://www.w3.org/1999/xlink">    <!-- Generator: Sketch 50 (54983) - http://www.bohemiancoding.com/sketch -->    <title>Shape</title>    <desc>Created with Sketch.</desc>    <defs></defs>    <g id="多媒体-chorus" stroke="none" stroke-width="1" fill="none" fill-rule="evenodd">        <path d="M0.620572428,1.32642637 C0.620572428,0.962338714 0.88637875,0.665261059 1.21472774,0.665261059 C1.54307672,0.665261059 1.80888305,0.960105047 1.80888305,1.32642637 L1.80888305,6.67159048 C1.80888305,7.03567813 1.54307672,7.33275579 1.21472774,7.33275579 C0.88637875,7.33275579 0.620572428,7.0379118 0.620572428,6.67159048 L0.620572428,1.32642637 Z M4.19220528,1.32642637 C4.19220528,0.962338714 4.4580116,0.665261059 4.78636059,0.665261059 C5.11470958,0.665261059 5.3805159,0.960105047 5.3805159,1.32642637 L5.3805159,6.67159048 C5.3805159,7.03567813 5.11470958,7.33275579 4.78636059,7.33275579 C4.4580116,7.33275579 4.19220528,7.0379118 4.19220528,6.67159048 L4.19220528,1.32642637 Z" id="Shape" fill="#FEFEFE" fill-rule="nonzero" transform="translate(3.000544, 3.999008) scale(-1, -1) translate(-3.000544, -3.999008) "></path>    </g></svg>